<?xml version="1.0" encoding="utf-8"?>
<!-- Generator: Adobe Illustrator 16.0.0, SVG Export Plug-In . SVG Version: 6.00 Build 0)  -->
<!DOCTYPE svg PUBLIC "-//W3C//DTD SVG 1.1//EN" "http://www.w3.org/Graphics/SVG/1.1/DTD/svg11.dtd">
<svg version="1.1" id="Layer_1" xmlns="http://www.w3.org/2000/svg" xmlns:xlink="http://www.w3.org/1999/xlink" x="0px" y="0px"
	 width="128px" height="128px" viewBox="0 0 128 128" enable-background="new 0 0 128 128" xml:space="preserve">
<g>
	<g>
		<polyline fill="#FFECB3" points="20,38 20,64.5 29,64.5 29,76.3 23.5,81.7 28.4,86.6 20.2,94.7 32.9,107.4 		"/>
		<path fill="#37474F" d="M32.9,108.9c-0.4,0-0.8-0.1-1.1-0.4L19.1,95.8c-0.3-0.3-0.4-0.7-0.4-1.1s0.2-0.8,0.4-1.1l7.1-7.1l-3.8-3.8
			c-0.3-0.3-0.4-0.7-0.4-1.1s0.2-0.8,0.4-1.1l5-4.9V66H20c-0.8,0-1.5-0.7-1.5-1.5V38c0-0.8,0.7-1.5,1.5-1.5s1.5,0.7,1.5,1.5v25H29
			c0.8,0,1.5,0.7,1.5,1.5v11.8c0,0.4-0.2,0.8-0.4,1.1l-4.4,4.3l3.8,3.8c0.6,0.6,0.6,1.5,0,2.1l-7.1,7.1l11.6,11.6
			c0.6,0.6,0.6,1.5,0,2.1C33.6,108.8,33.3,108.9,32.9,108.9z"/>
	</g>
	<g>
		<rect x="20" y="20.5" fill="#37474F" width="102" height="7"/>
		<path fill="#37474F" d="M122,29H20c-0.8,0-1.5-0.7-1.5-1.5v-7c0-0.8,0.7-1.5,1.5-1.5h102c0.8,0,1.5,0.7,1.5,1.5v7
			C123.5,28.3,122.8,29,122,29z M21.5,26h99v-4h-99V26z"/>
	</g>
	<g>
		<path fill="#78909C" d="M75,58.9c0,2.2-1.8,3.9-4,3.9l0,0c-2.2,0-4-1.7-4-3.9V35c0-2.1,1.9-3.9,4-3.9l0,0c2.2,0,4,1.8,4,3.9V58.9z
			"/>
		<path fill="#37474F" d="M71,64.3c-3,0-5.5-2.4-5.5-5.4V35c0-2.9,2.5-5.4,5.5-5.4c3,0,5.5,2.5,5.5,5.4v23.9
			C76.5,61.9,74,64.3,71,64.3z M71,32.6c-1.3,0-2.5,1.1-2.5,2.4v23.9c0,1.3,1.1,2.4,2.5,2.4c1.4,0,2.5-1.1,2.5-2.4V35
			C73.5,33.7,72.3,32.6,71,32.6z"/>
	</g>
	<g>
		<path fill="#FFFFFF" d="M71.1,54.9c-23.2,0-42,20.4-42,45.5c0,2.4,0.3,5.1,0.7,7.1h82.6c0.3-2,0.7-4.7,0.7-7.1
			C113,75.3,94.2,54.9,71.1,54.9z"/>
		<path fill="#37474F" d="M112.4,109H29.8c-0.7,0-1.4-0.5-1.5-1.2c-0.2-1.2-0.7-4.3-0.7-7.3c0-25.9,19.5-47,43.5-47
			c24,0,43.5,21.1,43.5,47c0,2.9-0.4,5.8-0.7,7.3C113.7,108.5,113.1,109,112.4,109z M31.1,106h80c0.2-1.4,0.4-3.6,0.4-5.6
			c0-24.3-18.1-44-40.5-44c-22.3,0-40.5,19.8-40.5,44C30.6,102.5,30.9,104.6,31.1,106z"/>
	</g>
	<g>
		<path fill="#FFECB3" d="M20.4,20.6c-9.6,0-17.4,8.5-17.4,18.9c0,1,0.1,1.9,0.3,2.9h34.3c0.1-1,0.3-1.9,0.3-2.9
			C37.8,29.1,30,20.6,20.4,20.6z"/>
		<path fill="#37474F" d="M37.5,44H3.2c-0.8,0-1.4-0.6-1.5-1.3l0-0.2c-0.1-0.9-0.3-1.9-0.3-3c0-11.3,8.5-20.4,18.9-20.4
			c10.4,0,18.9,9.2,18.9,20.4c0,0.9-0.1,1.7-0.2,2.5L39,42.7C38.9,43.4,38.3,44,37.5,44z M4.5,41h31.7c0.1-0.5,0.1-1,0.1-1.4
			c0-9.6-7.1-17.4-15.9-17.4c-8.8,0-15.9,7.8-15.9,17.4C4.4,40,4.5,40.5,4.5,41z"/>
	</g>
	<g>
		<g>
			<path fill="#FFAB00" d="M88.5,81.1c0,9.6-7.8,17.5-17.5,17.5c-9.7,0-17.5-7.8-17.5-17.5c0-9.7,7.8-17.5,17.5-17.5
				C80.7,63.7,88.5,71.5,88.5,81.1z"/>
			<path fill="#37474F" d="M71.1,100.1c-10.5,0-19-8.5-19-19c0-10.5,8.5-19,19-19s19,8.5,19,19C90,91.6,81.5,100.1,71.1,100.1z
				 M71.1,65.2c-8.8,0-16,7.2-16,16c0,8.8,7.2,16,16,16s16-7.2,16-16C87,72.3,79.9,65.2,71.1,65.2z"/>
		</g>
		<g>
			<path fill="#FFECB3" d="M79,81.1c0,4.4-3.5,7.9-7.9,7.9s-7.9-3.5-7.9-7.9c0-4.4,3.6-7.9,7.9-7.9S79,76.8,79,81.1z"/>
			<path fill="#37474F" d="M71.1,90.5c-5.2,0-9.4-4.2-9.4-9.4c0-5.2,4.2-9.4,9.4-9.4c5.2,0,9.4,4.2,9.4,9.4
				C80.5,86.3,76.3,90.5,71.1,90.5z M71.1,74.7c-3.5,0-6.4,2.9-6.4,6.4c0,3.5,2.9,6.4,6.4,6.4c3.5,0,6.4-2.9,6.4-6.4
				C77.5,77.6,74.6,74.7,71.1,74.7z"/>
		</g>
	</g>
	<g>
		<path fill="#FFECB3" d="M112.5,107.5c0,2-1.6,4-3.7,4H33.3c-2,0-3.7-2-3.7-4l0,0c0-2,1.6-4,3.7-4h75.6
			C110.9,103.5,112.5,105.5,112.5,107.5L112.5,107.5z"/>
		<path fill="#37474F" d="M108.9,113H33.3c-2.7,0-5.2-2.6-5.2-5.5c0-3,2.4-5.5,5.2-5.5h75.6c2.8,0,5.2,2.5,5.2,5.5
			C114,110.4,111.6,113,108.9,113z M33.3,105c-1.1,0-2.2,1.2-2.2,2.5c0,1.3,1.1,2.5,2.2,2.5h75.6c1.1,0,2.2-1.2,2.2-2.5
			c0-1.3-1-2.5-2.2-2.5H33.3z"/>
	</g>
	<g>
		<path fill="#FFAB00" d="M94.7,24.5c0,4.4-3.9,8-8.7,8H56.1c-4.8,0-8.7-3.5-8.7-8l0,0c0-4.4,3.9-8,8.7-8H86
			C90.8,16.5,94.7,20.1,94.7,24.5L94.7,24.5z"/>
		<path fill="#37474F" d="M86,34H56.1c-5.6,0-10.2-4.3-10.2-9.5c0-5.2,4.6-9.5,10.2-9.5H86c5.6,0,10.2,4.3,10.2,9.5
			C96.2,29.7,91.7,34,86,34z M56.1,18c-4,0-7.2,2.9-7.2,6.5c0,3.6,3.2,6.5,7.2,6.5H86c4,0,7.2-2.9,7.2-6.5c0-3.6-3.2-6.5-7.2-6.5
			H56.1z"/>
	</g>
	<g>
		<rect x="112" y="20.5" fill="#78909C" width="13" height="35"/>
		<path fill="#37474F" d="M126.5,57h-16V19h16V57z M113.5,54h10V22h-10V54z"/>
	</g>
	<g>
		<g>
			<path fill="#37474F" d="M81.8,24.1c0-1,0.8-1.8,1.8-1.8c1,0,1.8,0.8,1.8,1.8c0,1-0.8,1.8-1.8,1.8C82.6,25.9,81.8,25,81.8,24.1z"
				/>
			<path fill="#37474F" d="M83.5,26.3c-1.2,0-2.2-1-2.2-2.3c0-1.3,1-2.3,2.3-2.3c0.6,0,1.2,0.2,1.7,0.7c0.4,0.4,0.7,1,0.6,1.6
				C85.9,25.3,84.9,26.3,83.5,26.3L83.5,26.3z M83.6,22.8c-0.7,0-1.3,0.6-1.3,1.3c0,0.7,0.6,1.3,1.2,1.3v0.5l0-0.5
				c0.7,0,1.3-0.6,1.3-1.3c0-0.4-0.1-0.7-0.4-0.9C84.3,22.9,84,22.8,83.6,22.8z"/>
		</g>
		<g>
			<path fill="#37474F" d="M69.3,24.1c0-1,0.8-1.8,1.8-1.8c1,0,1.8,0.8,1.8,1.8c0,1-0.8,1.8-1.8,1.8C70.1,25.8,69.3,25,69.3,24.1z"
				/>
			<path fill="#37474F" d="M71.1,26.4L71.1,26.4c-1.3,0-2.3-1.1-2.3-2.3c0-0.6,0.2-1.2,0.6-1.6c0.4-0.4,1-0.7,1.6-0.7
				c1.3,0,2.3,1,2.3,2.3C73.4,25.3,72.3,26.4,71.1,26.4z M71.1,22.8c-0.3,0-0.7,0.1-0.9,0.4c-0.2,0.2-0.4,0.6-0.4,0.9
				c0,0.7,0.6,1.3,1.3,1.3c0.7,0,1.3-0.6,1.3-1.3C72.4,23.3,71.8,22.8,71.1,22.8z"/>
		</g>
		<g>
			<path fill="#37474F" d="M56.8,24.1c0-1,0.8-1.8,1.8-1.8c1,0,1.8,0.8,1.8,1.8c0,1-0.8,1.8-1.8,1.8C57.6,25.9,56.8,25,56.8,24.1z"
				/>
			<path fill="#37474F" d="M58.6,26.3L58.6,26.3C58.5,26.3,58.5,26.3,58.6,26.3c-1.3,0-2.3-1-2.3-2.3c0-1.3,1-2.3,2.3-2.3
				c1.3,0,2.3,1,2.3,2.3C60.9,25.3,59.8,26.3,58.6,26.3z M58.6,22.8c-0.7,0-1.3,0.6-1.3,1.3c0,0.7,0.6,1.3,1.2,1.3l0.1,0.5v-0.5
				c0.7,0,1.3-0.6,1.3-1.3C59.9,23.3,59.3,22.8,58.6,22.8z"/>
		</g>
	</g>
	<g>
		<line fill="#FFECB3" x1="112.5" y1="27.5" x2="124.5" y2="27.5"/>
		<path fill="#37474F" d="M124.5,29h-12c-0.8,0-1.5-0.7-1.5-1.5s0.7-1.5,1.5-1.5h12c0.8,0,1.5,0.7,1.5,1.5S125.3,29,124.5,29z"/>
	</g>
	<g>
		<line fill="#FFECB3" x1="112.5" y1="33.5" x2="124.5" y2="33.5"/>
		<path fill="#37474F" d="M124.5,35h-12c-0.8,0-1.5-0.7-1.5-1.5s0.7-1.5,1.5-1.5h12c0.8,0,1.5,0.7,1.5,1.5S125.3,35,124.5,35z"/>
	</g>
	<g>
		<line fill="#FFECB3" x1="112.5" y1="39.5" x2="124.5" y2="39.5"/>
		<path fill="#37474F" d="M124.5,41h-12c-0.8,0-1.5-0.7-1.5-1.5s0.7-1.5,1.5-1.5h12c0.8,0,1.5,0.7,1.5,1.5S125.3,41,124.5,41z"/>
	</g>
	<g>
		<line fill="#FFECB3" x1="112.5" y1="45.5" x2="124.5" y2="45.5"/>
		<path fill="#37474F" d="M124.5,47h-12c-0.8,0-1.5-0.7-1.5-1.5s0.7-1.5,1.5-1.5h12c0.8,0,1.5,0.7,1.5,1.5S125.3,47,124.5,47z"/>
	</g>
	<g>
		<path fill="#FFECB3" d="M125.1,54.6c0-9.6-8.6-17.4-19-17.4c-1,0-2,0.2-3,0.3v34.3c1,0.1,2,0.3,3,0.3
			C116.5,72.1,125.1,64.3,125.1,54.6z"/>
		<path fill="#37474F" d="M106.1,73.6c-1,0-2.1-0.1-3.1-0.3l-0.2,0c-0.7-0.1-1.3-0.7-1.3-1.5V37.5c0-0.8,0.6-1.4,1.3-1.5l0.4-0.1
			c0.9-0.1,1.9-0.2,2.8-0.2c11.3,0,20.5,8.5,20.5,18.9C126.6,65.1,117.4,73.6,106.1,73.6z M104.5,70.5c0.5,0.1,1.1,0.1,1.5,0.1
			c9.7,0,17.5-7.1,17.5-15.9c0-8.8-7.9-15.9-17.5-15.9c-0.5,0-1,0-1.5,0.1V70.5z"/>
	</g>
	<g>
		<path fill="#B0BEC5" d="M103.4,72.1c-2.3,0-4.2-7.8-4.2-17.4c0-9.6,1.9-17.4,4.2-17.4c2.3,0,4.2,7.8,4.2,17.4
			C107.7,64.2,105.8,72.1,103.4,72.1z"/>
		<path fill="#37474F" d="M103.4,73.6c-5.6,0-5.7-17-5.7-18.9s0.2-18.9,5.7-18.9c5.6,0,5.7,17,5.7,18.9S109,73.6,103.4,73.6z
			 M103.4,38.8c-1.1,1-2.7,6.7-2.7,15.8c0,9.1,1.7,14.8,2.7,15.8c1.1-1,2.7-6.7,2.7-15.8C106.2,45.6,104.5,39.9,103.4,38.8z"/>
	</g>
</g>
</svg>
